<svg width="49" height="78" viewBox="0 0 49 78" fill="none" xmlns="http://www.w3.org/2000/svg">
<path d="M22.2136 17.2721C24.4166 11.5147 25.5181 7.59482 25.5181 5.51237C25.5181 3.42992 24.998 2.32745 23.9577 2.20495C21.0815 2.20495 18.083 6.82921 14.9621 16.0777C11.9023 25.265 9.48516 34.8198 7.71052 44.7421C5.99707 54.6031 5.14034 61.5854 5.14034 65.689C5.14034 72.6101 6.85379 76.0707 10.2807 76.0707C10.2807 76.4994 10.0053 76.9281 9.45456 77.3569C8.90381 77.7856 8.26127 78 7.52693 78C2.50898 78 0 73.4982 0 64.4947C0 61.1873 0.611946 56.1343 1.83584 49.3357C3.05973 42.4759 4.65079 35.3098 6.60901 27.8375C8.56724 20.3651 11.1068 13.8728 14.2277 8.36043C17.3487 2.78681 20.5308 0 23.7741 0C26.3443 0 27.6293 1.62309 27.6293 4.86926C27.6293 7.3192 26.8644 10.7491 25.3346 15.159C22.3972 23.7338 18.1748 32.3086 12.6673 40.8834C11.1986 43.1496 9.88292 44.987 8.72023 46.3958C8.41425 46.7633 8.26127 46.6408 8.26127 46.0283C8.20007 44.8645 8.47545 43.8539 9.08739 42.9965C14.1053 35.4629 18.4808 26.8881 22.2136 17.2721Z" fill="black"/>
<path d="M21.2789 34.7279C21.2789 34.0542 21.7072 33.7173 22.5639 33.7173H27.3371C27.6431 32.4923 28.0409 30.9611 28.5304 29.1237L29.8155 24.3463C30.1827 22.9376 30.4886 21.6514 30.7334 20.4876C31.0394 19.3239 31.5901 18.7421 32.3857 18.7421C33.426 18.7421 34.1603 19.5383 34.5887 21.1307C34.7723 21.8045 34.8641 22.6313 34.8641 23.6113C34.8641 24.5913 34.6805 25.8469 34.3133 27.3781L32.5693 33.7173H38.2604C38.8111 33.7173 39.1783 33.9011 39.3619 34.2686C39.6066 34.636 39.6066 35.0035 39.3619 35.371C39.1783 35.6773 38.8111 35.8304 38.2604 35.8304H32.0185C28.2244 50.1013 26.3274 60.2073 26.3274 66.1484C26.3274 70.4971 27.3065 72.6714 29.2647 72.6714C30.8558 72.6714 33.0894 70.5583 35.9656 66.3322C38.8417 62.106 41.3201 57.8799 43.4007 53.6537L46.5216 47.3145H49C48.6328 48.0495 48.1433 49.0601 47.5313 50.3463C46.9806 51.5713 45.8485 53.8068 44.135 57.053C42.4216 60.2379 40.7693 63.0554 39.1783 65.5053C37.6484 67.9552 35.9044 70.1908 33.9461 72.212C32.0491 74.172 30.2745 75.1519 28.6222 75.1519C26.97 75.1519 25.5319 74.6313 24.308 73.5901C23.1453 72.4876 22.411 70.9564 22.105 68.9965C21.7378 66.9753 21.5542 64.9234 21.5542 62.841C21.5542 58.0024 23.2677 48.9988 26.6946 35.8304H22.5639C22.0744 35.8304 21.7378 35.7079 21.5542 35.4629C21.3707 35.1567 21.2789 34.9117 21.2789 34.7279Z" fill="black"/>
</svg>
