<svg width="75" height="75" viewBox="0 0 75 75" fill="none" xmlns="http://www.w3.org/2000/svg">
<path d="M36.6145 21.8848C37.9969 18.2752 38.6881 15.8176 38.6881 14.512C38.6881 13.2064 38.3617 12.5152 37.7089 12.4384C35.9041 12.4384 34.0225 15.3376 32.0641 21.136C30.1441 26.896 28.6273 32.8864 27.5137 39.1072C26.4385 45.2896 25.9009 49.6672 25.9009 52.24C25.9009 56.5792 26.9761 58.7488 29.1265 58.7488C29.1265 59.0176 28.9537 59.2864 28.6081 59.5552C28.2625 59.824 27.8593 59.9584 27.3985 59.9584C24.2497 59.9584 22.6753 57.136 22.6753 51.4912C22.6753 49.4176 23.0593 46.2496 23.8273 41.9872C24.5953 37.6864 25.5937 33.1936 26.8225 28.5088C28.0513 23.824 29.6449 19.7536 31.6033 16.2976C33.5617 12.8032 35.5585 11.056 37.5937 11.056C39.2065 11.056 40.0129 12.0736 40.0129 14.1088C40.0129 15.6448 39.5329 17.7952 38.5729 20.56C36.7297 25.936 34.0801 31.312 30.6241 36.688C29.7025 38.1088 28.8769 39.2608 28.1473 40.144C27.9553 40.3744 27.8593 40.2976 27.8593 39.9136C27.8209 39.184 27.9937 38.5504 28.3777 38.0128C31.5265 33.2896 34.2721 27.9136 36.6145 21.8848Z" fill="black"/>
<path d="M36.0279 32.8288C36.0279 32.4064 36.2967 32.1952 36.8343 32.1952H39.8295C40.0215 31.4272 40.2711 30.4672 40.5783 29.3152L41.3847 26.32C41.6151 25.4368 41.8071 24.6304 41.9607 23.9008C42.1527 23.1712 42.4983 22.8064 42.9975 22.8064C43.6503 22.8064 44.1111 23.3056 44.3799 24.304C44.4951 24.7264 44.5527 25.2448 44.5527 25.8592C44.5527 26.4736 44.4375 27.2608 44.2071 28.2208L43.1127 32.1952H46.6839C47.0295 32.1952 47.2599 32.3104 47.3751 32.5408C47.5287 32.7712 47.5287 33.0016 47.3751 33.232C47.2599 33.424 47.0295 33.52 46.6839 33.52H42.7671C40.3863 42.4672 39.1959 48.8032 39.1959 52.528C39.1959 55.2544 39.8103 56.6176 41.0391 56.6176C42.0375 56.6176 43.4391 55.2928 45.2439 52.6432C47.0487 49.9936 48.6039 47.344 49.9095 44.6944L51.8679 40.72H53.4231C53.1927 41.1808 52.8855 41.8144 52.5015 42.6208C52.1559 43.3888 51.4455 44.7904 50.3703 46.8256C49.2951 48.8224 48.2583 50.5888 47.2599 52.1248C46.2999 53.6608 45.2055 55.0624 43.9767 56.3296C42.7863 57.5584 41.6727 58.1728 40.6359 58.1728C39.5991 58.1728 38.6967 57.8464 37.9287 57.1936C37.1991 56.5024 36.7383 55.5424 36.5463 54.3136C36.3159 53.0464 36.2007 51.76 36.2007 50.4544C36.2007 47.4208 37.2759 41.776 39.4263 33.52H36.8343C36.5271 33.52 36.3159 33.4432 36.2007 33.2896C36.0855 33.0976 36.0279 32.944 36.0279 32.8288Z" fill="black"/>
<path d="M37.5 74C57.6584 74 74 57.6584 74 37.5C74 17.3416 57.6584 1 37.5 1C17.3416 1 1 17.3416 1 37.5" stroke="url(#paint0_linear)" stroke-linecap="round"/>
<path d="M37.5 74C57.6584 74 74 57.6584 74 37.5C74 17.3416 57.6584 1 37.5 1C17.3416 1 1 17.3416 1 37.5" stroke="url(#paint1_linear)" stroke-linecap="round"/>
<defs>
<linearGradient id="paint0_linear" x1="65.3189" y1="10.8649" x2="42.4324" y2="76.7622" gradientUnits="userSpaceOnUse">
<stop/>
<stop offset="1" stop-opacity="0"/>
</linearGradient>
<linearGradient id="paint1_linear" x1="47.5622" y1="4.55135" x2="1" y2="35.7243" gradientUnits="userSpaceOnUse">
<stop stop-color="#D1D1D1"/>
<stop offset="1" stop-color="white" stop-opacity="0"/>
</linearGradient>
</defs>
</svg>
